<?xml version="1.0" encoding="UTF-8"?>
<svg width="512" height="512" viewBox="0 0 512 512" fill="none" xmlns="http://www.w3.org/2000/svg">
  <rect width="512" height="512" rx="128" fill="url(#gradient)"/>
  <path d="M256 128C179.3 128 128 179.3 128 256C128 332.7 179.3 384 256 384C332.7 384 384 332.7 384 256C384 179.3 332.7 128 256 128ZM256 352C197.4 352 160 314.6 160 256C160 197.4 197.4 160 256 160C314.6 160 352 197.4 352 256C352 314.6 314.6 352 256 352Z" fill="white"/>
  <defs>
    <linearGradient id="gradient" x1="0" y1="0" x2="512" y2="512" gradientUnits="userSpaceOnUse">
      <stop offset="0%" style="stop-color:#3B82F6"/>
      <stop offset="100%" style="stop-color:#8B5CF6"/>
    </linearGradient>
  </defs>
</svg>
